<?xml version="1.0" encoding="utf-8"?>
<!-- Generator: Adobe Illustrator 16.0.0, SVG Export Plug-In . SVG Version: 6.00 Build 0)  -->
<!DOCTYPE svg PUBLIC "-//W3C//DTD SVG 1.1//EN" "http://www.w3.org/Graphics/SVG/1.1/DTD/svg11.dtd">
<svg version="1.1" id="Calque_1" xmlns="http://www.w3.org/2000/svg" xmlns:xlink="http://www.w3.org/1999/xlink" x="0px" y="0px"
	 width="141.73px" height="141.73px" viewBox="0 0 141.73 141.73" enable-background="new 0 0 141.73 141.73" xml:space="preserve">
<g>
	<path fill="none" stroke="#080808" stroke-width="8" stroke-linejoin="round" stroke-miterlimit="10" d="M61.365,101.865
		c0,4.418-3.582,8-8,8l0,0c-4.418,0-8-3.582-8-8v-62c0-4.418,3.582-8,8-8l0,0c4.418,0,8,3.582,8,8V101.865z"/>
	<path fill="none" stroke="#080808" stroke-width="8" stroke-linejoin="round" stroke-miterlimit="10" d="M96.365,101.865
		c0,4.418-3.582,8-8,8l0,0c-4.418,0-8-3.582-8-8v-62c0-4.418,3.582-8,8-8l0,0c4.418,0,8,3.582,8,8V101.865z"/>
</g>
</svg>
